HIERARCHY
ROOT Hips
{
  OFFSET 55.6705 85.5428 15.4067
  CHANNELS 6 Xposition Yposition Zposition Zrotation Xrotation Yrotation
  JOINT spine
  {
    OFFSET 0 6.3926 0.367606
    CHANNELS 3 Zrotation Xrotation Yrotation
    JOINT spine1
    {
      OFFSET 0 9.17611 0
      CHANNELS 3 Zrotation Xrotation Yrotation
      JOINT spine2
      {
        OFFSET 0 8.79238 0
        CHANNELS 3 Zrotation Xrotation Yrotation
        JOINT Neck
        {
          OFFSET 0 22.5737 1.07624
          CHANNELS 3 Zrotation Xrotation Yrotation
          JOINT Head
          {
            OFFSET 0 6.82011 0
            CHANNELS 3 Zrotation Xrotation Yrotation
            End Site
            {
              OFFSET 0 16.5085 -5.44427
            }
          }
        }
        JOINT RightShoulder
        {
          OFFSET -3.70221 9.49509 -0.515508
          CHANNELS 3 Zrotation Xrotation Yrotation
          JOINT RightArm
          {
            OFFSET 0 12.4537 0
            CHANNELS 3 Zrotation Xrotation Yrotation
            JOINT RightArmRoll
            {
              OFFSET 0 6.28686 0
              CHANNELS 3 Zrotation Xrotation Yrotation
              JOINT RightForeArm
              {
                OFFSET 0 18.3114 0
                CHANNELS 3 Zrotation Xrotation Yrotation
                JOINT RightForeArmRoll
                {
                  OFFSET 0 7.05483 0
                  CHANNELS 3 Zrotation Xrotation Yrotation
                  JOINT RightHand
                  {
                    OFFSET 0 14.1575 0
                    CHANNELS 3 Zrotation Xrotation Yrotation
                    End Site
                    {
                      OFFSET 0 0 0
                    }
                  }
                }
              }
            }
          }
        }
        JOINT LeftShoulder
        {
          OFFSET 3.70221 9.49509 -0.515508
          CHANNELS 3 Zrotation Xrotation Yrotation
          JOINT LeftArm
          {
            OFFSET 0 12.4537 0
            CHANNELS 3 Zrotation Xrotation Yrotation
            JOINT LeftArmRoll
            {
              OFFSET 0 6.28686 0
              CHANNELS 3 Zrotation Xrotation Yrotation
              JOINT LeftForeArm
              {
                OFFSET 0 18.3114 0
                CHANNELS 3 Zrotation Xrotation Yrotation
                JOINT LeftForeArmRoll
                {
                  OFFSET 0 7.05482 0
                  CHANNELS 3 Zrotation Xrotation Yrotation
                  JOINT LeftHand
                  {
                    OFFSET 0 14.1575 0
                    CHANNELS 3 Zrotation Xrotation Yrotation
                    End Site
                    {
                      OFFSET 0 0 0
                    }
                  }
                }
              }
            }
          }
        }
      }
    }
  }
  JOINT RightUpLeg
  {
    OFFSET -5.66615 -1.03903 -0.87161
    CHANNELS 3 Zrotation Xrotation Yrotation
    JOINT RightUpLegRoll
    {
      OFFSET 0 16.6005 0
      CHANNELS 3 Zrotation Xrotation Yrotation
      JOINT RightLeg
      {
        OFFSET 0 -20.5572 0
        CHANNELS 3 Zrotation Xrotation Yrotation
        JOINT RightLegRoll
        {
          OFFSET 0 20.6244 0
          CHANNELS 3 Zrotation Xrotation Yrotation
          JOINT RightFoot
          {
            OFFSET 0 17.1664 0
            CHANNELS 3 Zrotation Xrotation Yrotation
            JOINT RightToeBase
            {
              OFFSET 0 14.3502 0
              CHANNELS 3 Zrotation Xrotation Yrotation
              End Site
              {
                OFFSET 0.00608252 6.94971 -0.80106
              }
            }
          }
        }
      }
    }
  }
  JOINT LeftUpLeg
  {
    OFFSET 5.66615 -1.03903 -0.87161
    CHANNELS 3 Zrotation Xrotation Yrotation
    JOINT LeftUpLegRoll
    {
      OFFSET 0 16.6006 0
      CHANNELS 3 Zrotation Xrotation Yrotation
      JOINT LeftLeg
      {
        OFFSET 0 20.5571 0
        CHANNELS 3 Zrotation Xrotation Yrotation
        JOINT LeftLegRoll
        {
          OFFSET 0 20.8151 0
          CHANNELS 3 Zrotation Xrotation Yrotation
          JOINT LeftFoot
          {
            OFFSET 0 16.9757 0
            CHANNELS 3 Zrotation Xrotation Yrotation
            JOINT LeftToeBase
            {
              OFFSET 0 14.3502 0
              CHANNELS 3 Zrotation Xrotation Yrotation
              End Site
              {
                OFFSET -0.0272592 6.94971 -0.801061
              }
            }
          }
        }
      }
    }
  }
}
MOTION
Frames: 8
Frame Time: 0.00208333
56.0652 84.9135 13.3804 1.28588 -0.086453 -14.6864 0.166514 -0.716731 0.613674 0.334916 2.57125 1.20715 0.320784 4.21616 1.20251 -41.5475 11.2335 4.64791 25.1755 11.5061 -8.96825 -10.4115 4.3928 26.6506 69.5852 79.9651 62.7867 -6.17145e-007 -7.06672e-007 -1.99077e-006 -12.4754 35.2916 6.25204 7.747e-007 5.70938e-008 -3 8.02892 -4.95146 0.697707 -67.1294 -14.406 8.66367 -102.446 26.7284 56.0914 -1.59028e-015 -1.80821e-007 1.27222e-014 161.204 54.1451 -127.13 2.07692e-006 -3.79404e-006 3.00403 -8.029 -4.95145 -0.69766 174.214 3.65653 1.96864 180 7.01552e-015 178.946 176.931 18.1812 179.803 3.75384e-006 -3.03995e-006 0.456785 -27.6442 75.5364 29.1116 8.17321 25.9304 -2.53977 -173.258 11.3291 1.20844 4.54188e-006 -4.6773e-006 -0.89093 0.82521 -9.20748 0.76658 -2.78954e-006 7.69505e-007 0.279273 13.9642 65.1615 -17.6176 -8.13691 25.2388 3.48268 
56.0773 84.9226 13.4166 1.22746 -0.142679 -14.811 0.162263 -0.717133 0.601892 0.326385 2.57037 1.18416 0.312519 4.21528 1.17965 -41.3681 11.306 4.70514 25.0211 11.5348 -8.87751 -9.91007 4.67535 26.8768 71.8352 79.7136 61.0973 -6.17145e-007 -7.06672e-007 -1.99077e-006 -12.2837 36.6945 6.43829 7.747e-007 5.70938e-008 -3 8.02892 -4.95146 0.697707 -67.0352 -14.3643 8.64414 -102.418 26.647 55.7912 4.77083e-015 -1.80821e-007 3.18055e-015 161.275 54.1606 -127.326 2.07692e-006 -3.79404e-006 3.004 -8.029 -4.95145 -0.69766 174.262 3.58683 1.94176 180 7.01552e-015 178.943 176.945 18.1409 179.8 3.75384e-006 -3.03995e-006 0.45663 -27.5983 75.5119 29.0633 8.173 25.9277 -2.54352 -173.174 11.2322 1.13176 4.54188e-006 -4.6773e-006 -0.890342 0.793698 -9.20987 0.767437 -2.78954e-006 7.69505e-007 0.279128 13.9321 65.1719 -17.6261 -8.13691 25.2388 3.48267 
56.0549 84.9242 13.4142 1.16868 -0.198636 -14.9416 0.158725 -0.717269 0.590286 0.319276 2.57002 1.16145 0.305674 4.21494 1.15703 -41.196 11.3708 4.76204 24.8676 11.5652 -8.78711 -9.40932 4.96197 27.106 74.0063 79.4416 59.4617 -6.17145e-007 -7.06672e-007 -1.99077e-006 -12.0877 38.0994 6.61811 7.747e-007 5.70938e-008 -3 8.02892 -4.95146 0.697707 -66.944 -14.3293 8.62802 -102.39 26.571 55.4927 -6.36111e-015 -1.80821e-007 -9.54166e-015 161.345 54.1762 -127.523 2.07692e-006 -3.79405e-006 3.00397 -8.029 -4.95145 -0.69766 174.31 3.51814 1.91584 180 7.01551e-015 178.94 176.959 18.0998 179.797 3.75384e-006 -3.03995e-006 0.456424 -27.5506 75.4863 29.013 8.17277 25.9247 -2.54762 -173.089 11.1334 1.05542 4.54188e-006 -4.6773e-006 -0.88982 0.7629 -9.21219 0.768418 -2.78954e-006 7.69505e-007 0.279045 13.9003 65.1821 -17.6345 -8.13691 25.2388 3.48267 
56.0696 84.9298 13.4317 1.10995 -0.253893 -15.0776 0.155891 -0.717224 0.578976 0.313576 2.57005 1.13925 0.300235 4.21497 1.1349 -41.0318 11.4289 4.81867 24.7155 11.5955 -8.69727 -8.90938 5.25188 27.3351 76.0899 79.1516 57.8833 -6.17145e-007 -7.06672e-007 -1.99077e-006 -11.8874 39.5005 6.78839 7.747e-007 5.70938e-008 -3 8.02892 -4.95146 0.697707 -66.8559 -14.3003 8.6151 -102.363 26.5014 55.1967 -9.54166e-015 -1.80821e-007 3.18055e-015 161.416 54.1919 -127.72 2.07692e-006 -3.79404e-006 3.00395 -8.029 -4.95145 -0.69766 174.355 3.4507 1.89109 180 7.0155e-015 178.938 176.971 18.0576 179.795 3.75384e-006 -3.03995e-006 0.456154 -27.5011 75.4596 28.9608 8.17252 25.9215 -2.55205 -173.006 11.033 0.980049 4.54188e-006 -4.6773e-006 -0.889385 0.733181 -9.21435 0.769523 -2.78954e-006 7.69505e-007 0.279022 13.8693 65.1922 -17.6427 -8.13691 25.2388 3.48266 
56.0568 84.9096 13.439 1.05168 -0.308025 -15.2184 0.153755 -0.717082 0.56808 0.309273 2.57027 1.11778 0.296185 4.2152 1.11349 -40.8761 11.4811 4.87506 24.5651 11.6242 -8.60823 -8.41032 5.54436 27.5613 78.0794 78.8458 56.3635 -6.17145e-007 -7.06672e-007 -1.99077e-006 -11.682 40.8924 6.94561 7.747e-007 5.70938e-008 -3 8.02892 -4.95146 0.697707 -66.7711 -14.2768 8.60519 -102.335 26.4389 54.9038 3.18055e-015 -1.80821e-007 1.90833e-014 161.486 54.2076 -127.916 2.07692e-006 -3.79404e-006 3.00392 -8.029 -4.95145 -0.69766 174.399 3.38474 1.86767 180 7.0155e-015 178.935 176.983 18.0141 179.792 3.75384e-006 -3.03995e-006 0.455809 -27.4499 75.4318 28.9067 8.17227 25.918 -2.55679 -172.924 10.9315 0.90632 4.54188e-006 -4.6773e-006 -0.889058 0.704909 -9.21626 0.770751 -2.78954e-006 7.69505e-007 0.279055 13.8397 65.202 -17.6507 -8.13691 25.2388 3.48265 
56.0605 84.92 13.4561 0.994301 -0.360607 -15.3633 0.15231 -0.716927 0.557718 0.306353 2.57053 1.09728 0.293509 4.21546 1.09303 -40.7295 11.5285 4.93126 24.4168 11.6494 -8.52024 -7.91215 5.83872 27.7817 79.9699 78.5268 54.9019 -6.17145e-007 -7.06672e-007 -1.99077e-006 -11.4703 42.2695 7.0858 7.747e-007 5.70938e-008 -3 8.02892 -4.95146 0.697707 -66.6898 -14.2582 8.59807 -102.307 26.3844 54.615 -7.95139e-015 -1.80821e-007 -6.36111e-015 161.556 54.2232 -128.111 2.07692e-006 -3.79404e-006 3.0039 -8.029 -4.95145 -0.69766 174.44 3.32052 1.84578 180 7.01549e-015 178.933 176.993 17.9693 179.79 3.75384e-006 -3.03995e-006 0.455377 -27.397 75.4029 28.8507 8.17199 25.9143 -2.56183 -172.843 10.8294 0.834882 4.54188e-006 -4.6773e-006 -0.888861 0.678448 -9.21781 0.772102 -2.78954e-006 7.69505e-007 0.27914 13.8117 65.2117 -17.6585 -8.13691 25.2388 3.48265 
56.0456 84.9196 13.4625 0.938227 -0.411214 -15.5117 0.151549 -0.716845 0.548009 0.304803 2.57065 1.078 0.292189 4.21558 1.07375 -40.5928 11.5718 4.9873 24.2712 11.6693 -8.43354 -7.41479 6.13431 27.9933 81.7582 78.1969 53.4964 -6.17145e-007 -7.06672e-007 -1.99077e-006 -11.2506 43.6264 7.20443 7.747e-007 5.70938e-008 -3 8.02892 -4.95146 0.697707 -66.6121 -14.2439 8.59354 -102.278 26.3388 54.3308 1.59028e-015 -1.80821e-007 3.18055e-015 161.625 54.2387 -128.304 2.07692e-006 -3.79404e-006 3.00387 -8.029 -4.95145 -0.69766 174.479 3.25828 1.82561 180 7.01549e-015 178.93 177.003 17.9229 179.788 3.75384e-006 -3.03995e-006 0.454846 -27.3424 75.3728 28.7928 8.17171 25.9104 -2.56716 -172.766 10.727 0.766386 4.54188e-006 -4.6773e-006 -0.888813 0.654164 -9.21892 0.773577 -2.78954e-006 7.69505e-007 0.279276 13.7861 65.2213 -17.666 -8.13691 25.2388 3.48265 
56.0635 84.9225 13.4757 0.883896 -0.459427 -15.6628 0.151466 -0.71692 0.53907 0.30461 2.57045 1.06015 0.29221 4.21539 1.05589 -40.4664 11.612 5.04324 24.1286 11.6824 -8.34838 -6.91809 6.43055 28.1931 83.442 77.8584 52.144 -6.17145e-007 -7.06672e-007 -1.99077e-006 -11.0204 44.9574 7.29644 7.747e-007 5.70938e-008 -3 8.02892 -4.95146 0.697707 -66.5381 -14.2334 8.5914 -102.248 26.303 54.052 -4.77083e-015 -1.80821e-007 3.18055e-015 161.694 54.254 -128.495 2.07692e-006 -3.79404e-006 3.00384 -8.029 -4.95145 -0.69766 174.515 3.19825 1.80734 180 7.01548e-015 178.928 177.011 17.8747 179.787 3.75384e-006 -3.03995e-006 0.454203 -27.2862 75.3416 28.733 8.17142 25.9063 -2.57275 -172.692 10.6249 0.701484 4.54188e-006 -4.6773e-006 -0.888935 0.632425 -9.21947 0.775175 -2.78954e-006 7.69505e-007 0.279457 13.7632 65.2307 -17.6733 -8.13691 25.2388 3.48264 
